<svg id="Layer_1" data-name="Layer 1" xmlns="http://www.w3.org/2000/svg" viewBox="0 0 18 18"><title>test</title><path d="M18,10.62V7.38H15.38a6.5,6.5,0,0,0-.72-1.74l1.85-1.85L14.22,1.49,12.36,3.34a6.55,6.55,0,0,0-1.74-.72V0H7.38V2.62a6.53,6.53,0,0,0-1.74.72L3.78,1.49,1.49,3.78,3.34,5.64a6.5,6.5,0,0,0-.72,1.74H0v3.24H2.62a6.51,6.51,0,0,0,.72,1.74L1.49,14.22l2.29,2.29,1.85-1.85a6.53,6.53,0,0,0,1.74.72V18h3.24V15.38a6.53,6.53,0,0,0,1.74-.72l1.85,1.85,2.29-2.29-1.85-1.85a6.5,6.5,0,0,0,.72-1.74H18Zm-9,2.5A4.12,4.12,0,1,1,13.12,9,4.12,4.12,0,0,1,9,13.12ZM9,7.5A1.5,1.5,0,1,0,10.5,9,1.5,1.5,0,0,0,9,7.5Z" fill="#c2c2c2" fill-rule="evenodd"/></svg>